<svg width="24" height="27" viewBox="0 0 24 27" fill="none" xmlns="http://www.w3.org/2000/svg">
<path d="M19.1282 8.50133C19.1282 6.51185 18.3642 4.60386 17.0044 3.19709C15.6445 1.79032 13.8001 1 11.8769 1C9.95377 1 8.10937 1.79032 6.7495 3.19709C5.38962 4.60386 4.62564 6.51185 4.62564 8.50133C4.62564 17.2529 1 19.7533 1 19.7533H22.7539C22.7539 19.7533 19.1282 17.2529 19.1282 8.50133Z" stroke="#CACED4" stroke-width="1.6" stroke-linecap="round" stroke-linejoin="round"/>
<path d="M13.9677 24.7542C13.7552 25.1331 13.4503 25.4476 13.0833 25.6662C12.7164 25.8849 12.3004 25.9999 11.8769 25.9999C11.4535 25.9999 11.0375 25.8849 10.6705 25.6662C10.3036 25.4476 9.99862 25.1331 9.78615 24.7542" stroke="#CACED4" stroke-width="1.6" stroke-linecap="round" stroke-linejoin="round"/>
</svg>
