<svg width="31" height="31" viewBox="0 0 31 31" fill="none" xmlns="http://www.w3.org/2000/svg">
<rect x="12.75" y="0.75" width="5.5" height="11.5" rx="2.75" stroke="#CACED4" stroke-width="1.5"/>
<rect x="18.75" y="12.75" width="11.5" height="5.5" rx="2.75" stroke="#CACED4" stroke-width="1.5"/>
<path d="M3.5 12.75H9.5C11.0188 12.75 12.25 13.9812 12.25 15.5C12.25 17.0188 11.0188 18.25 9.5 18.25H3.5C1.98122 18.25 0.75 17.0188 0.75 15.5C0.75 13.9812 1.98122 12.75 3.5 12.75Z" stroke="#CACED4" stroke-width="1.5"/>
<rect x="12.75" y="18.75" width="5.5" height="11.5" rx="2.75" stroke="#CACED4" stroke-width="1.5"/>
<mask id="path-5-inside-1_628_68" fill="white">
<path d="M20 21C20 20.4477 20.4477 20 21 20H24C25.1046 20 26 20.8954 26 22V23C26 24.6569 24.6569 26 23 26H22C20.8954 26 20 25.1046 20 24V21Z"/>
</mask>
<path d="M20 21C20 20.4477 20.4477 20 21 20H24C25.1046 20 26 20.8954 26 22V23C26 24.6569 24.6569 26 23 26H22C20.8954 26 20 25.1046 20 24V21Z" stroke="#CACED4" stroke-width="3" mask="url(#path-5-inside-1_628_68)"/>
<mask id="path-6-inside-2_628_68" fill="white">
<path d="M5 22C5 20.8954 5.89543 20 7 20H10C10.5523 20 11 20.4477 11 21V24C11 25.1046 10.1046 26 9 26H8C6.34315 26 5 24.6569 5 23V22Z"/>
</mask>
<path d="M5 22C5 20.8954 5.89543 20 7 20H10C10.5523 20 11 20.4477 11 21V24C11 25.1046 10.1046 26 9 26H8C6.34315 26 5 24.6569 5 23V22Z" stroke="#CACED4" stroke-width="3" mask="url(#path-6-inside-2_628_68)"/>
<mask id="path-7-inside-3_628_68" fill="white">
<path d="M20 7C20 5.89543 20.8954 5 22 5H23C24.6569 5 26 6.34315 26 8V9C26 10.1046 25.1046 11 24 11H21C20.4477 11 20 10.5523 20 10V7Z"/>
</mask>
<path d="M20 7C20 5.89543 20.8954 5 22 5H23C24.6569 5 26 6.34315 26 8V9C26 10.1046 25.1046 11 24 11H21C20.4477 11 20 10.5523 20 10V7Z" stroke="#CACED4" stroke-width="3" mask="url(#path-7-inside-3_628_68)"/>
<mask id="path-8-inside-4_628_68" fill="white">
<path d="M5 8C5 6.34315 6.34315 5 8 5H9C10.1046 5 11 5.89543 11 7V10C11 10.5523 10.5523 11 10 11H7C5.89543 11 5 10.1046 5 9V8Z"/>
</mask>
<path d="M5 8C5 6.34315 6.34315 5 8 5H9C10.1046 5 11 5.89543 11 7V10C11 10.5523 10.5523 11 10 11H7C5.89543 11 5 10.1046 5 9V8Z" stroke="#CACED4" stroke-width="3" mask="url(#path-8-inside-4_628_68)"/>
<rect x="14.75" y="14.75" width="1.5" height="1.5" rx="0.75" stroke="#CACED4" stroke-width="1.5"/>
<rect x="3.75" y="3.75" width="1.5" height="1.5" rx="0.75" stroke="#CACED4" stroke-width="1.5"/>
<rect x="3.75" y="25.75" width="1.5" height="1.5" rx="0.75" stroke="#CACED4" stroke-width="1.5"/>
<rect x="25.75" y="25.75" width="1.5" height="1.5" rx="0.75" stroke="#CACED4" stroke-width="1.5"/>
<rect x="25.75" y="3.75" width="1.5" height="1.5" rx="0.75" stroke="#CACED4" stroke-width="1.5"/>
</svg>
