<?xml version="1.0" standalone="no"?>
<!DOCTYPE svg PUBLIC "-//W3C//DTD SVG 20010904//EN"
 "http://www.w3.org/TR/2001/REC-SVG-20010904/DTD/svg10.dtd">
<svg version="1.0" xmlns="http://www.w3.org/2000/svg"
 width="366.000000pt" height="366.000000pt" viewBox="0 0 366.000000 366.000000"
 preserveAspectRatio="xMidYMid meet">

<g transform="translate(0.000000,366.000000) scale(0.100000,-0.100000)"
fill="#000000" stroke="none">
<path d="M1169 3640 c-97 -23 -148 -51 -202 -110 -30 -32 -68 -85 -84 -117
-25 -52 -28 -68 -28 -158 0 -88 3 -107 27 -157 35 -76 80 -130 142 -173 74
-50 144 -64 336 -67 146 -3 169 -1 204 16 73 36 77 54 74 281 -3 193 -4 202
-30 257 -51 110 -142 185 -267 220 -70 19 -114 21 -172 8z"/>
<path d="M2182 3640 c-148 -31 -266 -136 -309 -276 -16 -54 -18 -104 -18 -539
0 -446 1 -484 19 -535 11 -30 29 -71 41 -90 34 -53 110 -119 173 -148 50 -24
69 -27 162 -27 93 0 112 3 162 27 72 33 146 102 182 167 51 94 56 147 56 606
-1 455 -5 510 -55 611 -69 141 -261 236 -413 204z"/>
<path d="M3171 2795 c-124 -28 -238 -122 -282 -231 -22 -55 -23 -73 -24 -256
0 -183 1 -198 21 -225 42 -58 69 -64 279 -61 183 3 192 4 248 30 80 38 160
117 200 197 29 60 32 73 32 161 -1 131 -25 192 -114 281 -48 48 -81 71 -122
87 -77 28 -160 34 -238 17z"/>
<path d="M365 2640 c-114 -18 -228 -83 -285 -162 -74 -102 -91 -274 -37 -390
52 -116 164 -203 292 -228 42 -8 206 -10 535 -8 l475 3 66 32 c172 85 266 291
214 468 -43 151 -153 247 -312 274 -74 12 -881 22 -948 11z"/>
<path d="M2378 1798 c-87 -8 -165 -44 -231 -107 -99 -94 -141 -215 -119 -341
25 -137 99 -238 220 -297 l76 -38 460 -3 c512 -4 557 0 666 54 81 41 121 84
164 174 28 59 31 73 31 165 -1 91 -4 106 -32 167 -57 121 -132 183 -258 214
-60 15 -128 18 -490 18 -231 1 -450 -2 -487 -6z"/>
<path d="M370 1630 c-163 -21 -276 -105 -329 -245 -90 -238 60 -501 304 -533
185 -24 332 53 412 216 l38 76 3 195 c3 182 2 198 -17 228 -35 55 -70 67 -216
69 -72 1 -159 -1 -195 -6z"/>
<path d="M1285 1610 c-33 -11 -82 -37 -110 -57 -63 -48 -129 -146 -146 -215
-16 -66 -23 -848 -9 -954 19 -143 75 -242 172 -306 72 -48 138 -69 220 -69 94
0 161 22 239 80 55 41 73 61 102 119 55 111 59 156 55 654 -5 500 -8 521 -78
614 -43 58 -122 114 -193 138 -64 22 -177 20 -252 -4z"/>
<path d="M2134 789 c-25 -6 -53 -23 -75 -45 l-34 -35 0 -202 0 -202 33 -67
c41 -84 128 -167 209 -199 47 -19 78 -23 158 -24 91 0 106 3 160 29 131 65
215 187 223 327 13 221 -133 394 -351 419 -101 12 -268 11 -323 -1z"/>
</g>
</svg>
