<svg width="31" height="31" viewBox="0 0 31 31" fill="none" xmlns="http://www.w3.org/2000/svg">
<rect x="12" width="7" height="13" rx="3.5" fill="#975AF8"/>
<rect x="18" y="12" width="13" height="7" rx="3.5" fill="#975AF8"/>
<path d="M0 15.5C0 13.567 1.567 12 3.5 12H9.5C11.433 12 13 13.567 13 15.5V15.5C13 17.433 11.433 19 9.5 19H3.5C1.567 19 0 17.433 0 15.5V15.5Z" fill="#975AF8"/>
<rect x="12" y="18" width="7" height="13" rx="3.5" fill="#975AF8"/>
<path d="M20 21C20 20.4477 20.4477 20 21 20H24C25.1046 20 26 20.8954 26 22V23C26 24.6569 24.6569 26 23 26H22C20.8954 26 20 25.1046 20 24V21Z" fill="#975AF8"/>
<path d="M5 22C5 20.8954 5.89543 20 7 20H10C10.5523 20 11 20.4477 11 21V24C11 25.1046 10.1046 26 9 26H8C6.34315 26 5 24.6569 5 23V22Z" fill="#975AF8"/>
<path d="M20 7C20 5.89543 20.8954 5 22 5H23C24.6569 5 26 6.34315 26 8V9C26 10.1046 25.1046 11 24 11H21C20.4477 11 20 10.5523 20 10V7Z" fill="#975AF8"/>
<path d="M5 8C5 6.34315 6.34315 5 8 5H9C10.1046 5 11 5.89543 11 7V10C11 10.5523 10.5523 11 10 11H7C5.89543 11 5 10.1046 5 9V8Z" fill="#975AF8"/>
<rect x="14" y="14" width="3" height="3" rx="1.5" fill="#975AF8"/>
<rect x="3" y="3" width="3" height="3" rx="1.5" fill="#975AF8"/>
<rect x="3" y="25" width="3" height="3" rx="1.5" fill="#975AF8"/>
<rect x="25" y="25" width="3" height="3" rx="1.5" fill="#975AF8"/>
<rect x="25" y="3" width="3" height="3" rx="1.5" fill="#975AF8"/>
</svg>
