<svg width="28" height="27" viewBox="0 0 28 27" fill="none" xmlns="http://www.w3.org/2000/svg">
<path d="M27.1936 11.7391L15.7715 0.714556C15.2956 0.255198 14.661 0 13.9736 0C13.2861 0 12.6516 0.255198 12.1756 0.714556L0.753541 11.7391C-0.25118 12.7089 -0.25118 14.2911 0.753541 15.2609C1.22946 15.7202 1.81114 15.9754 2.4457 15.9754C2.4457 15.9754 2.49858 15.9754 2.55146 15.9754H3.02738V24.0907C3.02738 25.673 4.40227 27 6.04155 27H10.4835C10.9594 27 11.3296 26.6427 11.3296 26.1834V19.8034C11.3296 19.0888 11.9641 18.4764 12.7044 18.4764H15.3484C16.0888 18.4764 16.7233 19.0888 16.7233 19.8034V26.1834C16.7233 26.6427 17.0935 27 17.5694 27H22.0113C23.6506 27 25.0255 25.673 25.0255 24.0907V15.9754H25.4485C26.136 15.9754 26.7705 15.7202 27.2465 15.2609C28.2512 14.2911 28.2512 12.7089 27.2465 11.7391H27.1936ZM26.0302 14.138C25.8716 14.2911 25.6072 14.3932 25.3428 14.3932H24.1265C23.6506 14.3932 23.2805 14.7505 23.2805 15.2098V24.0907C23.2805 24.8053 22.6459 25.4178 21.9056 25.4178H18.2568V19.8544C18.2568 18.2722 16.882 16.9452 15.2427 16.9452H12.5987C10.9594 16.9452 9.58451 18.2722 9.58451 19.8544V25.4178H5.93579C5.19547 25.4178 4.56091 24.8053 4.56091 24.0907V15.2098C4.56091 14.7505 4.19075 14.3932 3.71482 14.3932H2.49858C2.49858 14.3932 2.49858 14.3932 2.4457 14.3932C2.1813 14.3932 1.96978 14.2911 1.81114 14.138C1.44098 13.7807 1.44098 13.2193 1.81114 12.862L13.2332 1.83743C13.3919 1.68431 13.6563 1.58223 13.9207 1.58223C14.1851 1.58223 14.3966 1.68431 14.6081 1.83743L26.0302 12.862C26.4004 13.2193 26.4004 13.7807 26.0302 14.138Z" fill="#CACED4"/>
</svg>
