<svg width="28" height="27" viewBox="0 0 28 27" fill="none" xmlns="http://www.w3.org/2000/svg">
<path fill-rule="evenodd" clip-rule="evenodd" d="M27.1572 11.7391L15.7494 0.719495C15.279 0.265077 14.6125 0 13.9461 0C13.2405 0 12.6132 0.265077 12.1428 0.719495L0.735037 11.7391C-0.245012 12.7237 -0.245012 14.2763 0.735037 15.2609C1.20546 15.7153 1.79349 15.9425 2.45992 15.9804C2.49913 15.9804 2.49913 15.9804 2.53833 15.9804H3.00875V24.0842C3.00875 25.6746 4.34162 27 6.0273 27H10.4963C10.9667 27 11.3196 26.6592 11.3196 26.2048V19.8429C11.3196 19.1234 11.9468 18.5175 12.6916 18.5175H15.3182C16.063 18.5175 16.6902 19.1234 16.6902 19.8429V26.2048C16.6902 26.6592 17.0431 27 17.5135 27H21.9825C23.629 27 25.0011 25.7125 25.0011 24.0842V15.9804H25.4323C26.1379 15.9804 26.7651 15.7153 27.2356 15.2609C28.2548 14.2763 28.2548 12.7237 27.2356 11.7391H27.1572Z" fill="#975AF8"/>
</svg>
