<?xml version="1.0" standalone="no"?>
<!DOCTYPE svg PUBLIC "-//W3C//DTD SVG 20010904//EN"
 "http://www.w3.org/TR/2001/REC-SVG-20010904/DTD/svg10.dtd">
<svg version="1.0" xmlns="http://www.w3.org/2000/svg"
 width="351.000000pt" height="398.000000pt" viewBox="0 0 351.000000 398.000000"
 preserveAspectRatio="xMidYMid meet">

<g transform="translate(0.000000,398.000000) scale(0.100000,-0.100000)"
fill="#000000" stroke="none">
<path d="M1523 3955 c-171 -31 -297 -87 -461 -206 -224 -162 -311 -263 -398
-461 -105 -237 -116 -290 -134 -669 -25 -517 -106 -880 -256 -1144 -37 -66
-87 -140 -110 -165 -76 -79 -121 -134 -138 -167 -23 -46 -21 -113 7 -153 48
-70 -95 -65 1712 -65 1533 0 1632 1 1662 17 65 36 105 119 89 183 -4 14 -40
60 -81 101 -165 167 -276 387 -359 709 -57 227 -66 298 -76 600 -5 154 -14
317 -20 362 -35 273 -169 554 -350 734 -169 168 -400 283 -650 324 -114 18
-336 18 -437 0z"/>
<path d="M1406 495 c-66 -17 -107 -59 -113 -119 -11 -98 87 -231 226 -305 111
-59 215 -74 333 -50 183 38 358 206 358 343 0 62 -63 128 -136 142 -50 9 -113
-24 -159 -85 -59 -78 -139 -111 -216 -91 -28 8 -55 29 -100 80 -34 38 -69 72
-78 76 -45 18 -70 20 -115 9z"/>
</g>
</svg>
