<svg width="25" height="28" viewBox="0 0 25 28" fill="none" xmlns="http://www.w3.org/2000/svg">
<path d="M20.2137 8.51345C20.2137 6.52076 19.4221 4.60968 18.0131 3.20064C16.6041 1.79159 14.693 1 12.7003 1C10.7076 1 8.79652 1.79159 7.38747 3.20064C5.97843 4.60968 5.18684 6.52076 5.18684 8.51345C5.18684 17.2791 0.586672 18.1001 1.43011 19.7836C2.27355 21.4672 23.5515 21.4074 23.9705 19.7836C24.3894 18.1598 20.2137 17.2791 20.2137 8.51345Z" stroke="#CACED4" stroke-width="2" stroke-linecap="round" stroke-linejoin="round"/>
<path d="M14.8666 24.7925C14.6465 25.172 14.3305 25.487 13.9503 25.706C13.5701 25.925 13.139 26.0403 12.7003 26.0403C12.2615 26.0403 11.8304 25.925 11.4502 25.706C11.07 25.487 10.754 25.172 10.5339 24.7925" stroke="#CACED4" stroke-width="2" stroke-linecap="round" stroke-linejoin="round"/>
</svg>
