<svg width="26" height="28" viewBox="0 0 26 28" fill="none" xmlns="http://www.w3.org/2000/svg">
<path d="M20.8044 8.51345C20.8044 6.52076 20.0128 4.60968 18.6038 3.20064C17.1947 1.79159 15.2837 1 13.291 1C11.2983 1 9.3872 1.79159 7.97816 3.20064C6.56911 4.60968 5.77752 6.52076 5.77752 8.51345C5.77752 17.2791 1.17736 18.1001 2.0208 19.7836C2.86424 21.4672 24.1422 21.4074 24.5611 19.7836C24.9801 18.1598 20.8044 17.2791 20.8044 8.51345Z" fill="#975AF8" stroke="#975AF8" stroke-width="2" stroke-linecap="round" stroke-linejoin="round"/>
<path d="M15.4573 24.7925C15.2372 25.172 14.9212 25.487 14.541 25.706C14.1608 25.925 13.7297 26.0403 13.2909 26.0403C12.8522 26.0403 12.4211 25.925 12.0409 25.706C11.6607 25.487 11.3447 25.172 11.1246 24.7925" stroke="#975AF8" stroke-width="2" stroke-linecap="round" stroke-linejoin="round"/>
</svg>
