<svg width="22" height="26" viewBox="0 0 22 26" fill="none" xmlns="http://www.w3.org/2000/svg">
<path fill-rule="evenodd" clip-rule="evenodd" d="M21.7803 20.0271C21.7288 19.5122 21.6773 18.9458 21.5743 18.3794C21.4714 17.813 21.3169 17.2466 21.1624 16.7317C21.008 16.2168 20.7505 15.7019 20.4931 15.187C20.1841 14.6721 19.8752 14.2087 19.4633 13.8483C19.0513 13.4364 18.5879 13.1274 17.97 12.9215C17.4036 12.7155 16.7858 12.561 16.1164 12.561C15.8589 12.561 15.6015 12.664 15.0866 12.973C14.7777 13.1789 14.4172 13.3849 14.0053 13.6423C13.6449 13.8483 13.1815 14.0542 12.6151 14.2602C12.0487 14.4147 11.4823 14.5177 10.9159 14.5177C10.3495 14.5177 9.78312 14.4147 9.21672 14.2602C8.65033 14.0542 8.18692 13.8483 7.82649 13.6423C7.41457 13.3849 7.05414 13.1789 6.7452 12.973C6.2303 12.664 5.97285 12.561 5.7154 12.561C5.04603 12.561 4.42815 12.664 3.86176 12.9215C3.29537 13.1274 2.78046 13.4364 2.36854 13.8483C1.95662 14.2087 1.64768 14.6721 1.33874 15.187C1.08129 15.7019 0.823841 16.2168 0.669371 16.7317C0.514901 17.2466 0.360431 17.813 0.25745 18.3794C0.15447 18.9458 0.10298 19.5122 0.0514901 20.0271C0 20.542 0 21.0569 0 21.5718C0 22.9105 0.411921 24.0433 1.28725 24.8157C2.11109 25.6395 3.24388 25.9999 4.58262 25.9999H17.0947C18.4334 25.9999 19.5662 25.588 20.3901 24.8157C21.2654 23.9918 21.6773 22.9105 21.6773 21.5718C21.6773 21.0569 21.6773 20.542 21.6258 20.0271H21.7803Z" fill="#975AF8"/>
<path fill-rule="evenodd" clip-rule="evenodd" d="M10.8128 12.5636C12.512 12.5636 14.0052 11.9457 15.241 10.7099C16.4767 9.47418 17.0946 7.98096 17.0946 6.28179C17.0946 4.58262 16.4767 3.08941 15.241 1.85364C14.0052 0.617881 12.512 0 10.8128 0C9.11364 0 7.62043 0.617881 6.38466 1.85364C5.1489 3.08941 4.53102 4.58262 4.53102 6.28179C4.53102 7.98096 5.1489 9.47418 6.38466 10.7099C7.62043 11.9457 9.11364 12.5636 10.8128 12.5636Z" fill="#975AF8"/>
</svg>
