<svg width="22" height="26" viewBox="0 0 22 26" fill="none" xmlns="http://www.w3.org/2000/svg">
<path d="M10.916 12.5154C12.6514 12.5154 14.1628 11.9063 15.3944 10.688C16.626 9.46965 17.2417 7.97444 17.2417 6.25772C17.2417 4.541 16.626 3.04579 15.3944 1.82748C14.1628 0.609159 12.6514 0 10.916 0C9.18066 0 7.66921 0.609159 6.43766 1.82748C5.20611 3.04579 4.59033 4.541 4.59033 6.25772C4.59033 7.97444 5.20611 9.46965 6.43766 10.688C7.66921 11.9063 9.18066 12.5154 10.916 12.5154ZM22 19.9915C21.972 19.4931 21.888 18.9393 21.7761 18.3578C21.6641 17.7764 21.5242 17.2226 21.3562 16.6965C21.1883 16.1704 20.9644 15.6443 20.6565 15.1459C20.3486 14.6198 20.0127 14.1768 19.6209 13.8168C19.201 13.4292 18.7252 13.1246 18.1374 12.9031C17.5496 12.6816 16.9338 12.5708 16.2341 12.5708C15.9542 12.5708 15.7023 12.6816 15.1985 13.0138C14.8906 13.2077 14.5267 13.4569 14.1349 13.7061C13.799 13.9276 13.3232 14.1214 12.7354 14.3152C12.1756 14.5091 11.6158 14.5921 11.028 14.5921C10.4682 14.5921 9.88041 14.5091 9.32061 14.3152C8.73282 14.1214 8.28499 13.9276 7.92112 13.7061C7.52926 13.4569 7.16539 13.2354 6.85751 13.0138C6.35369 12.6816 6.10178 12.5708 5.82188 12.5708C5.15013 12.5708 4.50636 12.6816 3.91858 12.9031C3.33079 13.1246 2.82697 13.4292 2.43511 13.8168C2.04326 14.1768 1.70738 14.6475 1.39949 15.1459C1.11959 15.6443 0.895674 16.1704 0.699746 16.6965C0.531807 17.1949 0.391857 17.7487 0.279898 18.3578C0.167939 18.9393 0.111959 19.4931 0.0559796 19.9915C0.0279898 20.4899 0 21.016 0 21.5144C0 22.8711 0.447837 23.9787 1.28753 24.7817C2.12723 25.5847 3.27481 26 4.61832 26H17.2697C18.6412 26 19.7608 25.5847 20.6005 24.7817C21.4682 23.9787 21.888 22.8711 21.888 21.5144C21.888 20.9883 21.8601 20.4622 21.8321 19.9638L22 19.9915ZM19.7048 23.7018C19.145 24.2279 18.3893 24.4771 17.4377 24.4771H4.78626C3.80662 24.4771 3.07888 24.2279 2.51908 23.7018C1.95929 23.1757 1.70738 22.4835 1.70738 21.5421C1.70738 21.0437 1.73537 20.573 1.76336 20.1022C1.79135 19.6592 1.84733 19.1608 1.95929 18.6347C2.04326 18.1086 2.18321 17.6102 2.32316 17.1672C2.4631 16.7519 2.65903 16.3088 2.88295 15.9212C3.10687 15.5335 3.35878 15.2013 3.63868 14.9244C3.89058 14.6752 4.22646 14.4814 4.61832 14.3152C4.98219 14.1768 5.40204 14.0937 5.82188 14.0937C5.87786 14.1214 5.96183 14.1768 6.12977 14.2875C6.43766 14.4814 6.80153 14.7306 7.22137 14.9798C7.66921 15.2567 8.257 15.5335 8.95674 15.7551C9.68448 15.9766 10.4122 16.0873 11.1399 16.0873C11.8677 16.0873 12.5954 15.9766 13.3232 15.7551C14.0229 15.5335 14.6107 15.2843 15.0585 14.9798C15.4784 14.7306 15.8142 14.4814 16.1501 14.2875C16.3181 14.1768 16.402 14.1214 16.458 14.0937C16.9059 14.0937 17.2977 14.1768 17.6616 14.3152C18.0534 14.4814 18.3893 14.6752 18.6412 14.9244C18.9211 15.2013 19.173 15.5335 19.3969 15.9212C19.6209 16.3365 19.8168 16.7519 19.9567 17.1672C20.0967 17.6102 20.2087 18.1086 20.3206 18.6347C20.4046 19.1608 20.4885 19.6592 20.5165 20.1022C20.5445 20.573 20.5725 21.0437 20.5725 21.5421C20.5725 22.4835 20.2926 23.1757 19.7608 23.7018H19.7048ZM7.52926 2.90735C8.48092 1.96592 9.57252 1.5229 10.916 1.5229C12.2595 1.5229 13.3511 1.96592 14.3028 2.90735C15.2545 3.84878 15.7023 4.92865 15.7023 6.25772C15.7023 7.58679 15.2545 8.66667 14.3028 9.60809C13.3511 10.5495 12.2595 10.9925 10.916 10.9925C9.57252 10.9925 8.48092 10.5495 7.52926 9.60809C6.57761 8.66667 6.12977 7.58679 6.12977 6.25772C6.12977 4.92865 6.57761 3.84878 7.52926 2.90735Z" fill="#CACED4"/>
</svg>
